HIERARCHY
ROOT Hips
{
	OFFSET 0.000000 83.214638 0.000000
	CHANNELS 6 Xposition Yposition Zposition Xrotation Yrotation Zrotation
	JOINT Pelvis
	{
		OFFSET 0.000000 0.000000 0.000000
		CHANNELS 3 Xrotation Yrotation Zrotation
		JOINT LeftUpLeg
		{
			OFFSET 8.479700 -4.795502 -0.379100
			CHANNELS 3 Xrotation Yrotation Zrotation
			JOINT LeftLeg
			{
				OFFSET 0.024144 -32.555107 0.112900
				CHANNELS 3 Xrotation Yrotation Zrotation
				JOINT LeftFoot
				{
					OFFSET -0.024144 -32.638630 -3.012600
					CHANNELS 3 Xrotation Yrotation Zrotation
					JOINT LeftToeBase
					{
						OFFSET 0.970200 -13.225400 11.864200
						CHANNELS 3 Xrotation Yrotation Zrotation
						End Site
						{
							OFFSET 0.000000 12.319262 0.000000
						}
					}
					JOINT LFootTongue
					{
						OFFSET 1.142400 -1.059800 6.665200
						CHANNELS 3 Xrotation Yrotation Zrotation
						End Site
						{
							OFFSET 0.000000 12.319262 0.000000
						}
					}
				}
				JOINT LeftPantLeg
				{
					OFFSET 0.918482 -16.533964 -2.284700
					CHANNELS 3 Xrotation Yrotation Zrotation
					End Site
					{
						OFFSET 0.350399 24.744368 0.000000
					}
				}
			}
		}
		JOINT RightUpLeg
		{
			OFFSET -8.479700 -4.795502 -0.379100
			CHANNELS 3 Xrotation Yrotation Zrotation
			JOINT RightLeg
			{
				OFFSET -0.023144 -32.555092 0.112900
				CHANNELS 3 Xrotation Yrotation Zrotation
				JOINT RightFoot
				{
					OFFSET 0.023144 -32.638641 -3.012700
					CHANNELS 3 Xrotation Yrotation Zrotation
					JOINT RightToeBase
					{
						OFFSET -0.970200 -13.225400 11.864200
						CHANNELS 3 Xrotation Yrotation Zrotation
						End Site
						{
							OFFSET 0.000000 12.319244 0.000000
						}
					}
					JOINT RFootTongue
					{
						OFFSET -1.142200 -1.059800 6.665200
						CHANNELS 3 Xrotation Yrotation Zrotation
						End Site
						{
							OFFSET 0.000000 12.319243 0.000000
						}
					}
				}
				JOINT RightPantLeg
				{
					OFFSET -0.919482 -16.533978 -2.284800
					CHANNELS 3 Xrotation Yrotation Zrotation
					End Site
					{
						OFFSET -0.350400 24.744419 0.000000
					}
				}
			}
		}
	}
	JOINT Spine
	{
		OFFSET 0.000000 7.722000 1.166200
		CHANNELS 3 Xrotation Yrotation Zrotation
		JOINT Spine1
		{
			OFFSET 0.000000 12.024101 0.248800
			CHANNELS 3 Xrotation Yrotation Zrotation
			JOINT Spine2
			{
				OFFSET 0.000000 11.502998 -0.491200
				CHANNELS 3 Xrotation Yrotation Zrotation
				JOINT Neck
				{
					OFFSET 0.000000 18.430702 -3.123100
					CHANNELS 3 Xrotation Yrotation Zrotation
					JOINT Head
					{
						OFFSET 0.000000 9.051102 1.034000
						CHANNELS 3 Xrotation Yrotation Zrotation
						JOINT HairB
						{
							OFFSET 0.208400 24.786102 24.822300
							CHANNELS 3 Xrotation Yrotation Zrotation
							End Site
							{
								OFFSET 0.000000 32.263779 0.000000
							}
						}
						JOINT HairA
						{
							OFFSET -7.081100 24.428299 23.196600
							CHANNELS 3 Xrotation Yrotation Zrotation
							End Site
							{
								OFFSET 0.000000 32.263779 0.000000
							}
						}
						JOINT Hat
						{
							OFFSET 16.728800 15.048294 -15.439601
							CHANNELS 3 Xrotation Yrotation Zrotation
							End Site
							{
								OFFSET 0.000000 32.263779 0.000000
							}
						}
					}
				}
				JOINT LeftShoulder
				{
					OFFSET 6.197800 13.665199 -4.064700
					CHANNELS 3 Xrotation Yrotation Zrotation
					JOINT LeftArm
					{
						OFFSET 7.778100 -0.187103 -1.709300
						CHANNELS 3 Xrotation Yrotation Zrotation
						JOINT LeftForeArm
						{
							OFFSET 22.049376 0.000000 0.000000
							CHANNELS 3 Xrotation Yrotation Zrotation
							JOINT LeftHand
							{
								OFFSET 23.009392 0.000000 0.000000
								CHANNELS 3 Xrotation Yrotation Zrotation
								JOINT LeftHandThumb1
								{
									OFFSET 3.507191 -2.063065 3.133727
									CHANNELS 3 Xrotation Yrotation Zrotation
									JOINT LeftHandThumb2
									{
										OFFSET 3.101337 -1.790558 1.790558
										CHANNELS 3 Xrotation Yrotation Zrotation
										JOINT LeftHandThumb3
										{
											OFFSET 3.058640 -1.765907 1.765906
											CHANNELS 3 Xrotation Yrotation Zrotation
											End Site
											{
												OFFSET -0.415260 3.926476 -0.049563
											}
										}
									}
								}
								JOINT LeftHandIndex1
								{
									OFFSET 11.334419 -0.901459 3.706815
									CHANNELS 3 Xrotation Yrotation Zrotation
									JOINT LeftHandIndex2
									{
										OFFSET 3.283112 0.000000 0.000000
										CHANNELS 3 Xrotation Yrotation Zrotation
										JOINT LeftHandIndex3
										{
											OFFSET 3.323853 0.000000 0.000000
											CHANNELS 3 Xrotation Yrotation Zrotation
											End Site
											{
												OFFSET -1.135597 3.097809 0.402452
											}
										}
									}
								}
								JOINT LeftHandMiddle1
								{
									OFFSET 11.335861 0.000000 0.000000
									CHANNELS 3 Xrotation Yrotation Zrotation
									JOINT LeftHandMiddle2
									{
										OFFSET 3.410492 0.000000 0.000000
										CHANNELS 3 Xrotation Yrotation Zrotation
										JOINT LeftHandMiddle3
										{
											OFFSET 3.312172 0.000000 0.000000
											CHANNELS 3 Xrotation Yrotation Zrotation
											End Site
											{
												OFFSET -1.150200 3.080154 0.400270
											}
										}
									}
								}
								JOINT LeftHandRing1
								{
									OFFSET 11.514786 -0.013176 -3.003090
									CHANNELS 3 Xrotation Yrotation Zrotation
									JOINT LeftHandRing2
									{
										OFFSET 3.053307 0.000000 0.000000
										CHANNELS 3 Xrotation Yrotation Zrotation
										JOINT LeftHandRing3
										{
											OFFSET 3.295807 0.000000 0.000000
											CHANNELS 3 Xrotation Yrotation Zrotation
											End Site
											{
												OFFSET -1.281006 3.013344 0.375733
											}
										}
									}
								}
								JOINT LeftHandPinky1
								{
									OFFSET 10.518692 -0.960396 -5.730441
									CHANNELS 3 Xrotation Yrotation Zrotation
									JOINT LeftHandPinky2
									{
										OFFSET 2.861649 0.000000 0.000000
										CHANNELS 3 Xrotation Yrotation Zrotation
										JOINT LeftHandPinky3
										{
											OFFSET 2.863380 0.000000 0.000000
											CHANNELS 3 Xrotation Yrotation Zrotation
											End Site
											{
												OFFSET -0.843597 2.711159 0.369971
											}
										}
									}
								}
							}
							JOINT LSleeve
							{
								OFFSET 6.676277 -0.344902 -1.011730
								CHANNELS 3 Xrotation Yrotation Zrotation
								End Site
								{
									OFFSET 0.000000 14.885353 0.000000
								}
							}
						}
					}
				}
				JOINT RightShoulder
				{
					OFFSET -6.197800 13.665199 -4.064700
					CHANNELS 3 Xrotation Yrotation Zrotation
					JOINT RightArm
					{
						OFFSET -7.778100 -0.187103 -1.709300
						CHANNELS 3 Xrotation Yrotation Zrotation
						JOINT RightForeArm
						{
							OFFSET -22.049376 0.000000 0.000000
							CHANNELS 3 Xrotation Yrotation Zrotation
							JOINT RightHand
							{
								OFFSET -23.009392 0.000000 0.000000
								CHANNELS 3 Xrotation Yrotation Zrotation
								JOINT RightHandThumb1
								{
									OFFSET -3.507191 -2.063065 3.133727
									CHANNELS 3 Xrotation Yrotation Zrotation
									JOINT RightHandThumb2
									{
										OFFSET -3.101337 -1.790558 1.790558
										CHANNELS 3 Xrotation Yrotation Zrotation
										JOINT RightHandThumb3
										{
											OFFSET -3.058640 -1.765907 1.765906
											CHANNELS 3 Xrotation Yrotation Zrotation
											End Site
											{
												OFFSET 0.415260 3.926476 -0.049563
											}
										}
									}
								}
								JOINT RightHandIndex1
								{
									OFFSET -11.334419 -0.901459 3.706815
									CHANNELS 3 Xrotation Yrotation Zrotation
									JOINT RightHandIndex2
									{
										OFFSET -3.283112 0.000000 0.000000
										CHANNELS 3 Xrotation Yrotation Zrotation
										JOINT RightHandIndex3
										{
											OFFSET -3.323853 0.000000 0.000000
											CHANNELS 3 Xrotation Yrotation Zrotation
											End Site
											{
												OFFSET 1.135597 3.097809 0.402452
											}
										}
									}
								}
								JOINT RightHandMiddle1
								{
									OFFSET -11.335861 0.000000 0.000000
									CHANNELS 3 Xrotation Yrotation Zrotation
									JOINT RightHandMiddle2
									{
										OFFSET -3.410492 0.000000 0.000000
										CHANNELS 3 Xrotation Yrotation Zrotation
										JOINT RightHandMiddle3
										{
											OFFSET -3.312172 0.000000 0.000000
											CHANNELS 3 Xrotation Yrotation Zrotation
											End Site
											{
												OFFSET 1.150200 3.080154 0.400270
											}
										}
									}
								}
								JOINT RightHandRing1
								{
									OFFSET -11.514786 -0.013176 -3.003090
									CHANNELS 3 Xrotation Yrotation Zrotation
									JOINT RightHandRing2
									{
										OFFSET -3.053307 0.000000 0.000000
										CHANNELS 3 Xrotation Yrotation Zrotation
										JOINT RightHandRing3
										{
											OFFSET -3.295807 0.000000 0.000000
											CHANNELS 3 Xrotation Yrotation Zrotation
											End Site
											{
												OFFSET 1.281006 3.013344 0.375733
											}
										}
									}
								}
								JOINT RightHandPinky1
								{
									OFFSET -10.518692 -0.960396 -5.730441
									CHANNELS 3 Xrotation Yrotation Zrotation
									JOINT RightHandPinky2
									{
										OFFSET -2.861649 0.000000 0.000000
										CHANNELS 3 Xrotation Yrotation Zrotation
										JOINT RightHandPinky3
										{
											OFFSET -2.863380 0.000000 0.000000
											CHANNELS 3 Xrotation Yrotation Zrotation
											End Site
											{
												OFFSET 0.843597 2.711159 0.369971
											}
										}
									}
								}
							}
							JOINT RSleeve
							{
								OFFSET -6.676277 -0.344902 -1.011730
								CHANNELS 3 Xrotation Yrotation Zrotation
								End Site
								{
									OFFSET 0.000000 14.885353 0.000000
								}
							}
						}
					}
				}
				JOINT Backpack
				{
					OFFSET 0.000000 -2.471497 36.677502
					CHANNELS 3 Xrotation Yrotation Zrotation
					End Site
					{
						OFFSET 0.000000 20.427315 0.000000
					}
				}
				JOINT Hood
				{
					OFFSET 0.000000 18.754097 -10.431000
					CHANNELS 3 Xrotation Yrotation Zrotation
					JOINT Hood1
					{
						OFFSET 0.000000 -5.011002 -7.685901
						CHANNELS 3 Xrotation Yrotation Zrotation
						End Site
						{
							OFFSET 0.000000 9.175140 0.000000
						}
					}
				}
				JOINT LHoodieString
				{
					OFFSET 5.250500 16.397697 3.089900
					CHANNELS 3 Xrotation Yrotation Zrotation
					JOINT LHoodieString1
					{
						OFFSET 0.257700 -6.364304 3.694600
						CHANNELS 3 Xrotation Yrotation Zrotation
						JOINT LHoodieString2
						{
							OFFSET 0.000000 -9.643799 2.679100
							CHANNELS 3 Xrotation Yrotation Zrotation
							End Site
							{
								OFFSET 0.000000 10.009018 0.000000
							}
						}
					}
				}
				JOINT RHoodieString
				{
					OFFSET -5.250500 16.397697 3.089900
					CHANNELS 3 Xrotation Yrotation Zrotation
					JOINT RHoodieString1
					{
						OFFSET -0.257700 -6.364304 3.694600
						CHANNELS 3 Xrotation Yrotation Zrotation
						JOINT RHoodieString2
						{
							OFFSET 0.000000 -9.643799 2.679100
							CHANNELS 3 Xrotation Yrotation Zrotation
							End Site
							{
								OFFSET 0.000000 10.009018 0.000000
							}
						}
					}
				}
			}
			JOINT LBackpack_Strap
			{
				OFFSET 15.223200 -7.719803 -6.610900
				CHANNELS 3 Xrotation Yrotation Zrotation
				End Site
				{
					OFFSET 0.000000 16.040596 0.000000
				}
			}
			JOINT RBackpack_Strap
			{
				OFFSET -15.223000 -7.719803 -6.610900
				CHANNELS 3 Xrotation Yrotation Zrotation
				End Site
				{
					OFFSET 0.000000 16.040596 0.000000
				}
			}
		}
	}
	JOINT BoyFacialAnim_Joint
	{
		OFFSET 1.000000 -82.208099 -1.550900
		CHANNELS 3 Xrotation Yrotation Zrotation
		End Site
		{
			OFFSET 0.000000 30.012791 0.000000
		}
	}
}
MOTION
Frames: 4
Frame Time: 0.033333
4.049856 43.014130 16.672901 0.892902 2.943514 0.439276 -0.000000 0.000000 0.000000 -19.156995 -7.262181 9.909572 118.478210 8.275795 -4.168631 -8.328853 0.693521 -6.885414 -0.000000 -0.000001 -0.000000 -0.000000 -0.000001 -0.000000 -0.000000 -0.000000 0.000000 -14.637555 1.807008 -12.791282 117.013599 -8.673561 4.992806 -10.180275 -0.048746 1.585666 0.000000 0.000000 -0.000000 0.000000 0.000000 -0.000000 -0.000000 0.000002 -0.000000 -0.218608 -0.576585 -0.232168 -0.548998 -0.419883 -0.266705 -0.548879 -0.425279 -0.259148 2.868774 -0.559530 3.971556 -9.450582 2.783759 -3.818423 -0.000000 0.000000 -0.000000 -0.000000 0.000000 -0.000000 -0.000000 0.000000 -0.000000 1.772608 -5.685001 2.814150 -31.800565 -41.024012 -73.940268 0.000117 -104.452307 0.000127 4.507137 -18.608893 34.159460 -3.473831 -3.489054 6.902797 -12.215063 8.413453 29.028167 0.000002 0.000003 -0.000004 0.049574 -0.826449 6.865086 0.000001 0.000004 -0.000040 0.000000 -0.000001 -0.000002 0.049805 -0.828360 6.881085 0.000001 0.001937 -0.016038 0.000001 -0.000002 0.000002 0.049576 -0.826443 6.865085 -0.000004 0.000003 -0.000054 0.000002 -0.000005 0.000001 -0.453336 3.196569 7.385936 -0.018081 -4.054256 -0.511117 -0.000001 0.000003 0.000002 0.000001 0.000001 0.000003 4.527241 10.040107 3.045979 -31.769853 30.328430 78.537886 0.000007 111.744613 0.000001 21.126190 3.976722 -24.182403 -30.588937 10.684455 -20.987440 4.637201 -8.634129 -0.225403 -0.000002 -0.000002 -0.000002 0.208463 1.693137 -14.037276 0.000004 -0.000004 0.000057 0.000000 0.000001 0.000000 0.208466 1.693133 -14.037274 0.000005 -0.000007 0.000073 0.000001 0.000001 -0.000004 0.208464 1.693130 -14.037277 -0.000001 -0.000003 0.000079 0.000000 0.000001 -0.000001 0.208460 1.693128 -14.037275 -0.000001 -0.000001 0.000052 0.000000 -0.000000 -0.000002 0.000002 -0.000001 -0.000001 0.000000 0.000000 0.000000 0.000000 0.000000 0.000000 0.000000 0.000000 0.000000 0.000000 0.000000 0.000000 0.000000 0.000000 0.000000 0.000000 0.000000 0.000000 0.000000 0.000000 0.000000 0.000000 0.000000 0.000000 0.000000 0.000000 0.000000 0.000000 0.000000 -0.000000 0.000000 0.000000 -0.000000 -0.000000 0.000000 0.000000 
4.074578 43.004608 16.675230 0.805175 3.216872 0.457399 -0.000000 0.000000 -0.000000 -19.190538 -7.421220 9.745903 118.584460 8.584423 -4.181174 -8.307211 0.675177 -6.815605 0.000000 -0.000003 -0.000000 0.000000 -0.000003 -0.000000 -0.000000 -0.000001 0.000000 -14.448458 1.579736 -12.927678 116.941376 -8.479075 4.988380 -10.209076 -0.030471 1.408059 -0.000000 0.000001 -0.000000 -0.000000 0.000001 -0.000000 0.000000 -0.000000 0.000000 -0.262202 -0.662079 -0.214597 -0.615695 -0.483072 -0.257534 -0.615739 -0.488443 -0.248201 3.536622 -0.507108 4.023229 -10.820975 2.799450 -3.336214 -0.000001 0.000000 0.000000 -0.000001 0.000000 0.000000 -0.000001 0.000000 0.000000 1.773403 -5.688850 2.816535 -31.940666 -41.425859 -74.321385 -0.000108 -104.872022 -0.000120 5.806077 -18.930100 34.484662 -3.473834 -3.489053 6.902818 -12.215058 8.413452 29.028171 -0.000002 0.000000 0.000000 0.049570 -0.826443 6.865113 -0.000002 0.000006 -0.000059 -0.000000 -0.000000 -0.000002 0.049804 -0.828355 6.881077 0.000002 0.001926 -0.016024 0.000001 -0.000001 -0.000003 0.049569 -0.826441 6.865105 -0.000001 0.000002 -0.000037 -0.000000 -0.000001 -0.000001 -0.453342 3.196570 7.385949 -0.018087 -4.054259 -0.511110 -0.000001 -0.000000 -0.000000 -0.000003 0.000001 0.000003 4.408819 9.768538 3.492112 -31.265375 30.543489 78.050354 -0.000032 112.596276 0.000045 21.816340 4.393581 -23.904282 -30.586157 10.858521 -20.969106 4.637202 -8.634125 -0.225399 0.000001 0.000001 0.000001 0.208464 1.693134 -14.037277 0.000003 -0.000010 0.000074 -0.000001 -0.000000 -0.000000 0.208467 1.693130 -14.037282 0.000003 -0.000010 0.000089 -0.000001 0.000000 -0.000002 0.208465 1.693132 -14.037277 0.000004 -0.000009 0.000074 0.000001 0.000000 0.000000 0.208461 1.693127 -14.037283 0.000002 -0.000009 0.000081 0.000000 0.000001 -0.000001 0.000000 -0.000002 0.000002 -0.000000 -0.000000 0.000000 -0.000000 -0.000000 0.000000 -0.000000 -0.000000 0.000000 -0.000000 -0.000000 0.000000 -0.000000 -0.000000 0.000000 -0.000000 -0.000000 0.000000 -0.000000 -0.000000 0.000000 -0.000000 -0.000000 0.000000 -0.000000 -0.000000 0.000000 -0.000000 -0.000000 -0.000000 -0.000000 -0.000000 -0.000000 -0.000000 0.000000 -0.000000 
4.090845 42.998108 16.691236 0.683968 3.406288 0.439243 -0.000000 -0.000000 -0.000000 -19.118364 -7.515836 9.689301 118.615360 8.751626 -4.184376 -8.326166 0.652384 -6.653578 -0.000000 -0.000000 -0.000000 -0.000000 -0.000000 -0.000000 -0.000001 -0.000000 -0.000000 -14.258140 1.404156 -12.949088 116.876421 -8.388795 4.977837 -10.272203 0.004184 1.143100 -0.000000 -0.000002 0.000000 -0.000000 -0.000002 0.000000 0.000000 0.000001 -0.000000 -0.275435 -0.730913 -0.163484 -0.653952 -0.530688 -0.230303 -0.654274 -0.535493 -0.219530 4.140844 -0.439837 4.117345 -12.407240 2.952656 -2.932396 -0.000001 -0.000000 -0.000000 -0.000001 -0.000000 -0.000000 -0.000001 -0.000000 -0.000000 1.775741 -5.700168 2.823559 -31.876445 -41.707317 -74.487571 0.000088 -105.679583 0.000106 7.094327 -18.625093 34.611424 -3.473836 -3.489052 6.902797 -12.215049 8.413448 29.028195 0.000003 -0.000001 0.000001 0.049570 -0.826450 6.865117 -0.000001 0.000009 -0.000062 -0.000000 0.000000 -0.000004 0.049804 -0.828362 6.881092 -0.000002 0.001941 -0.016058 0.000001 -0.000001 0.000000 0.049569 -0.826444 6.865098 -0.000003 0.000004 -0.000035 -0.000000 -0.000001 -0.000002 -0.453341 3.196567 7.385955 -0.018093 -4.054249 -0.511133 0.000000 -0.000001 -0.000002 0.000001 0.000000 0.000002 4.333147 9.618082 3.901925 -30.836986 30.834766 77.648896 0.000080 113.554811 -0.000076 22.257054 4.659730 -23.806754 -30.582650 11.038116 -20.948936 4.637199 -8.634132 -0.225399 0.000002 0.000001 0.000000 0.208474 1.693132 -14.037278 -0.000003 -0.000005 0.000059 -0.000001 0.000002 0.000000 0.208475 1.693129 -14.037282 -0.000004 -0.000009 0.000093 -0.000000 -0.000000 -0.000000 0.208470 1.693129 -14.037260 -0.000003 -0.000006 0.000066 -0.000001 0.000002 -0.000001 0.208469 1.693127 -14.037277 -0.000003 -0.000006 0.000069 -0.000000 -0.000001 -0.000000 -0.000000 0.000001 -0.000002 -0.000000 -0.000000 0.000000 -0.000000 -0.000000 0.000000 -0.000000 -0.000000 0.000000 -0.000000 -0.000000 0.000000 -0.000000 -0.000000 0.000000 -0.000000 -0.000000 0.000000 -0.000000 -0.000000 0.000000 -0.000000 -0.000000 0.000000 -0.000000 -0.000000 0.000000 -0.000000 -0.000000 0.000000 -0.000000 -0.000000 0.000000 -0.000000 -0.000000 -0.000000 
4.099375 42.993858 16.699158 0.551647 3.466428 0.392414 -0.000000 -0.000000 0.000000 -19.012240 -7.455184 9.779577 118.607669 8.838476 -4.177721 -8.353697 0.615832 -6.361037 -0.000000 0.000002 -0.000002 -0.000000 0.000002 -0.000001 0.000001 0.000001 -0.000000 -14.110371 1.364387 -12.800242 116.854264 -8.510105 4.973473 -10.345524 0.040444 0.936964 -0.000000 -0.000002 -0.000000 -0.000000 -0.000002 -0.000000 0.000000 -0.000000 0.000001 -0.290327 -0.750533 -0.102092 -0.680496 -0.540181 -0.197962 -0.681076 -0.544156 -0.186772 4.524088 -0.413181 4.264691 -13.569170 3.052932 -2.724063 0.000000 0.000000 -0.000000 0.000000 0.000000 -0.000000 0.000000 0.000000 -0.000000 1.779558 -5.718609 2.835048 -31.482814 -41.709390 -74.272058 0.000050 -106.037362 0.000043 7.025637 -17.160155 34.861904 -3.473833 -3.489046 6.902789 -12.215045 8.413441 29.028164 0.000001 -0.000000 0.000003 0.049571 -0.826441 6.865108 0.000002 0.000004 -0.000047 0.000001 0.000001 -0.000003 0.049803 -0.828360 6.881080 0.000004 0.001933 -0.016035 -0.000001 -0.000001 0.000000 0.049571 -0.826442 6.865106 -0.000001 0.000004 -0.000059 -0.000001 -0.000001 -0.000001 -0.453339 3.196565 7.385945 -0.018094 -4.054245 -0.511126 -0.000000 0.000000 -0.000000 0.000002 0.000001 0.000004 4.293454 9.540579 4.127578 -30.690147 31.209938 77.325985 0.000114 113.516877 -0.000095 20.859531 4.242326 -23.835335 -30.578542 11.222796 -20.927109 4.637198 -8.634122 -0.225399 -0.000000 0.000000 -0.000002 0.208464 1.693136 -14.037272 0.000002 -0.000004 0.000045 0.000000 0.000000 0.000002 0.208471 1.693132 -14.037288 -0.000006 -0.000003 0.000075 -0.000001 0.000000 0.000002 0.208468 1.693136 -14.037271 -0.000007 -0.000003 0.000063 -0.000000 -0.000001 0.000000 0.208463 1.693130 -14.037295 -0.000001 -0.000002 0.000068 -0.000002 0.000000 -0.000001 -0.000000 -0.000000 -0.000001 -0.000000 0.000000 -0.000000 -0.000000 0.000000 -0.000000 -0.000000 0.000000 -0.000000 -0.000000 0.000000 -0.000000 -0.000000 0.000000 0.000000 0.000000 0.000000 -0.000000 -0.000000 0.000000 -0.000000 -0.000000 0.000000 0.000000 0.000000 0.000000 -0.000000 -0.000000 -0.000000 0.000000 -0.000000 -0.000000 0.000000 -0.000000 -0.000000 0.000000 
